<?xml version="1.0" standalone="no"?>
<!DOCTYPE svg PUBLIC "-//W3C//DTD SVG 20010904//EN"
 "http://www.w3.org/TR/2001/REC-SVG-20010904/DTD/svg10.dtd">
<svg version="1.0" xmlns="http://www.w3.org/2000/svg"
 width="638.000000pt" height="638.000000pt" viewBox="0 0 638.000000 638.000000"
 preserveAspectRatio="xMidYMid meet">
<metadata>
Created by potrace 1.14, written by Peter Selinger 2001-2017
</metadata>
<g transform="translate(0.000000,638.000000) scale(0.100000,-0.100000)"
fill="#000000" stroke="none">
<path d="M452 6360 c-109 -29 -187 -74 -272 -160 -87 -86 -131 -163 -160 -276
-20 -76 -20 -121 -20 -2734 0 -2613 0 -2658 20 -2734 28 -112 73 -190 160
-277 85 -87 160 -130 278 -160 73 -19 139 -19 2732 -19 2613 0 2658 0 2734 20
113 29 190 73 277 160 56 55 86 95 113 150 71 145 66 -70 66 2866 0 2607 0
2652 -20 2728 -29 113 -73 190 -160 276 -86 87 -163 131 -276 160 -76 20 -120
20 -2738 19 -2587 0 -2663 -1 -2734 -19z m2806 -1122 c130 -61 164 -246 64
-352 -15 -15 -59 -50 -97 -76 -218 -147 -448 -335 -639 -520 -112 -108 -338
-351 -332 -357 1 -2 90 39 197 91 407 198 824 353 1081 401 121 22 268 32 357
23 191 -18 333 -121 381 -277 60 -190 -23 -365 -305 -647 -220 -220 -456 -385
-800 -560 -300 -152 -590 -255 -840 -299 -122 -22 -358 -25 -464 -6 -163 29
-284 89 -360 179 l-39 46 -69 -61 c-193 -172 -385 -393 -496 -573 -127 -207
-236 -519 -207 -594 23 -62 263 -56 610 14 850 172 2628 708 3869 1164 84 31
140 46 173 46 194 0 289 -241 150 -383 -40 -41 -41 -41 -372 -159 -1468 -523
-3279 -1051 -3955 -1154 -150 -23 -403 -23 -510 0 -273 58 -415 230 -415 504
0 296 182 717 458 1062 158 197 395 421 641 609 l102 78 29 81 c173 493 802
1192 1502 1665 131 89 189 100 286 55z m2717 -407 c43 -19 100 -78 116 -118
19 -50 40 -255 46 -453 5 -175 3 -213 -11 -263 -58 -200 -342 -223 -421 -34
-12 30 -17 87 -20 255 -2 119 -9 246 -14 282 -23 147 -7 223 60 287 64 61 167
79 244 44z m-927 -337 c145 -60 206 -246 206 -629 0 -164 -4 -223 -23 -330
-13 -71 -29 -146 -37 -165 -28 -66 -96 -119 -172 -133 -78 -15 -185 35 -227
107 -34 59 -40 110 -21 202 47 226 42 533 -9 634 -35 68 -40 118 -21 177 18
55 72 114 126 137 46 20 131 20 178 0z"/>
<path d="M3640 3985 c-393 -66 -1101 -380 -1669 -740 -99 -62 -121 -81 -121
-100 0 -21 7 -25 58 -36 88 -18 271 -14 390 10 337 66 864 320 1167 561 97 77
187 162 267 253 l60 67 -38 -1 c-22 -1 -73 -7 -114 -14z"/>
</g>
</svg>
