<svg width="159" height="37" viewBox="0 0 159 37" fill="none" xmlns="http://www.w3.org/2000/svg">
<path d="M9.31141 28H0.151406V0.8H9.31141C11.7381 0.8 13.6981 1.06667 15.1914 1.6C16.7114 2.13333 17.8847 2.94666 18.7114 4.04C19.5647 5.10667 20.1381 6.46667 20.4314 8.12C20.7247 9.77333 20.8714 11.72 20.8714 13.96C20.8714 16.1733 20.7381 18.16 20.4714 19.92C20.2047 21.6533 19.6581 23.12 18.8314 24.32C18.0314 25.52 16.8714 26.44 15.3514 27.08C13.8314 27.6933 11.8181 28 9.31141 28ZM15.1114 17.2C15.1381 16.7733 15.1514 16.2667 15.1514 15.68C15.1781 15.0933 15.1914 14.4133 15.1914 13.64C15.1914 12.12 15.1381 10.92 15.0314 10.04C14.9247 9.13333 14.6714 8.30667 14.2714 7.56C13.8714 6.81333 13.2847 6.30667 12.5114 6.04C11.7381 5.74667 10.6714 5.6 9.31141 5.6H5.67141V23.2H9.31141C11.3114 23.2 12.7247 22.7467 13.5514 21.84C14.4047 20.9067 14.9247 19.36 15.1114 17.2ZM30.5392 28H25.1792V8H30.4992V10.12C32.7926 8.78667 34.9259 7.92 36.8992 7.52V12.92C35.8059 13.1333 34.7926 13.36 33.8592 13.6C32.9526 13.84 32.1126 14.08 31.3392 14.32L30.5392 14.6V28ZM48.222 7.52C51.5287 7.52 53.8887 8.44 55.302 10.28C56.7154 12.0933 57.422 14.6533 57.422 17.96C57.422 24.9733 54.3554 28.48 48.222 28.48C42.0887 28.48 39.022 24.9733 39.022 17.96C39.022 16.36 39.182 14.92 39.502 13.64C39.822 12.36 40.342 11.2667 41.062 10.36C41.782 9.45333 42.7287 8.76 43.902 8.28C45.0754 7.77333 46.5154 7.52 48.222 7.52ZM48.222 23.92C49.662 23.92 50.6487 23.4533 51.182 22.52C51.7154 21.56 51.982 20.04 51.982 17.96C51.982 15.88 51.7154 14.3867 51.182 13.48C50.6487 12.5467 49.662 12.08 48.222 12.08C46.782 12.08 45.7954 12.5467 45.262 13.48C44.7287 14.3867 44.462 15.88 44.462 17.96C44.462 18.6533 44.4887 19.36 44.542 20.08C44.622 20.7733 44.782 21.4133 45.022 22C45.2887 22.56 45.662 23.0267 46.142 23.4C46.6487 23.7467 47.342 23.92 48.222 23.92ZM66.7111 36.4H61.3511V8H66.6711V9.08C68.4044 8.04 69.9244 7.52 71.2311 7.52C72.5911 7.52 73.7644 7.72 74.7511 8.12C75.7378 8.49333 76.5511 9.10667 77.1911 9.96C77.8311 10.7867 78.3111 11.88 78.6311 13.24C78.9511 14.6 79.1111 16.24 79.1111 18.16C79.1111 20.08 78.9378 21.7067 78.5911 23.04C78.2444 24.3467 77.6978 25.4133 76.9511 26.24C76.2311 27.04 75.2978 27.6133 74.1511 27.96C73.0044 28.3067 71.6311 28.48 70.0311 28.48C69.1511 28.48 68.2044 28.4 67.1911 28.24L66.7111 28.16V36.4ZM70.1911 12.32C69.2044 12.32 68.2044 12.52 67.1911 12.92L66.7111 13.12V23.6C67.9111 23.76 68.8844 23.84 69.6311 23.84C71.1778 23.84 72.2311 23.3867 72.7911 22.48C73.3778 21.5733 73.6711 20.0267 73.6711 17.84C73.6711 14.16 72.5111 12.32 70.1911 12.32ZM94.1889 8V12.56H89.2689V20.76C89.2689 21.16 89.2689 21.5067 89.2689 21.8C89.2956 22.0667 89.3222 22.28 89.3489 22.44C89.4022 22.7867 89.5489 23.08 89.7889 23.32C90.0289 23.56 90.4156 23.68 90.9489 23.68L93.9889 23.6L94.2289 27.88C92.4422 28.28 91.0822 28.48 90.1489 28.48C88.9489 28.48 87.9489 28.3467 87.1489 28.08C86.3489 27.84 85.7089 27.4267 85.2289 26.84C84.7489 26.2533 84.4022 25.48 84.1889 24.52C84.0022 23.5333 83.9089 22.32 83.9089 20.88V12.56H81.5489V8H83.9089V2.44H89.2689V8H94.1889ZM109.479 22.96V8H114.839V28H109.519V26.88C107.626 27.9467 105.959 28.48 104.519 28.48C103.133 28.48 101.986 28.2933 101.079 27.92C100.173 27.5467 99.4526 26.96 98.9192 26.16C98.3859 25.36 98.0126 24.3333 97.7992 23.08C97.5859 21.8 97.4792 20.2667 97.4792 18.48V8H102.839V18.56C102.839 19.5467 102.866 20.3733 102.919 21.04C102.999 21.68 103.133 22.2 103.319 22.6C103.533 23 103.813 23.28 104.159 23.44C104.533 23.6 105.026 23.68 105.639 23.68C106.786 23.68 107.893 23.4933 108.959 23.12L109.479 22.96ZM125.149 13.04V28H119.789V8H125.109V9.12C126.895 8.05333 128.562 7.52 130.109 7.52C131.442 7.52 132.549 7.72 133.429 8.12C134.335 8.49333 135.055 9.08 135.589 9.88C136.149 10.68 136.549 11.68 136.789 12.88C137.029 14.08 137.149 15.5067 137.149 17.16V28H131.789V17.32C131.789 15.6133 131.589 14.36 131.189 13.56C130.789 12.7333 129.989 12.32 128.789 12.32C127.722 12.32 126.669 12.5067 125.629 12.88L125.149 13.04ZM158.058 20.28H146.298C146.325 21.5067 146.645 22.4 147.258 22.96C147.871 23.4933 148.778 23.76 149.978 23.76C152.458 23.76 154.671 23.68 156.618 23.52L157.738 23.4L157.818 27.36C154.805 28.1067 152.031 28.48 149.498 28.48C146.485 28.48 144.298 27.68 142.938 26.08C141.578 24.48 140.898 21.88 140.898 18.28C140.898 11.1067 143.845 7.52 149.738 7.52C155.551 7.52 158.458 10.5333 158.458 16.56L158.058 20.28ZM146.258 16.2H153.178C153.178 14.6 152.925 13.4933 152.418 12.88C151.938 12.24 151.058 11.92 149.778 11.92C148.498 11.92 147.591 12.2533 147.058 12.92C146.551 13.56 146.285 14.6533 146.258 16.2Z" fill="white"/>
</svg>
